<svg xmlns="http://www.w3.org/2000/svg" viewBox="0 0 749 678.83"><g id="Shape_1" data-name="Shape 1" style="isolation:isolate"><g id="Shape_1-2" data-name="Shape 1"><path d="M760.48,272.6a374.31,374.31,0,0,0-31.62-21.08C627.47,386.3,489.5,431.44,403,463c-89.12,32.52-193.49,94.78-205,181-8.47,63.44,12.85,111.48,24.71,132.44a376.4,376.4,0,0,0,95.53,100.69c-13.68-28-40.8-92.42-42.24-165.13-1.93-97.47,32.92-130.84,98-172s178.48-79.65,278-161C729.5,315.65,753.61,283.66,760.48,272.6Zm13.66,10.63c-2,37.39-26.34,69-56.14,122.77-37.41,67.45-16.58,119-11,150s-11.6,30-27,31-18.45-.57-16,12c6.53,34.36-17,40.32-27,45,1.31,15.67-.77,22.71-11,29s-11.06,12.49-11,25c-4.45,53.68-43.88,58.76-85,37s-74.58-53.26-106-77c17.48,148.55.44,189.76,152,181,107.14-6.2,158.74,21.85,179.79,38.83,94.6-68,156.21-179,156.21-304.33C912,456.42,858.27,351.9,774.14,283.23ZM326,457c44.71-19.1,146.62-29.52,237-83,82.34-48.73,139.15-119.89,148.6-132.16A373,373,0,0,0,537.5,199C330.67,199,163,366.67,163,573.5c0,3.11,0,6.2.12,9.29C229.37,489.53,283.23,475.27,326,457Z" transform="translate(-163 -199)" fill="#123574"/></g></g></svg>